<svg xmlns="http://www.w3.org/2000/svg" viewBox="0 0 128 128" role="img" aria-labelledby="title desc">
  <title id="title">Medário</title>
  <desc id="desc">Monograma M em navy com acento floral vermelho.</desc>
  <rect width="128" height="128" rx="30" fill="#1D3557"/>
  <path d="M25 93h14V42l24 51h3l24-51v51h14v5H74v-5h8V33L65 72h-3L44 33v60h8v5H25v-5Z" fill="#F1FAEE"/>
  <path d="M64 35c-1-11-9-18-22-21 1 14 8 22 20 24 1 7 1 11 1 15h3c0-4 0-8 1-15 12-2 19-10 20-24-13 3-21 10-23 21Z" fill="#E63946"/>
</svg>
